<svg xmlns="http://www.w3.org/2000/svg" width="203.93" height="204.066" viewBox="0 0 203.93 204.066">
  <g id="Group_821" data-name="Group 821" transform="translate(1.89 2.023)">
    <path id="Path_92" data-name="Path 92" d="M472.057,194.014c-6.347,35.553-6.443,90.15,68.975,114.814,26.589,8.695,121.5-1.059,128.1-83.56,3.989-49.88-24.005-99.427-73.936-111.421-52.415-12.6-113.325,25.162-123.142,80.167" transform="translate(-469.511 -111.415)" fill="none" stroke="#000" stroke-width="4"/>
    <path id="Path_104" data-name="Path 104" d="M.062,56.181c.927,2.325,5.563,1.245,9.492,1,2.205-.139,17.14.515,19.349.581,5.805.176,9.459.065,20.919.1,7.041.023,4.259-.171,11.3-.148a53.408,53.408,0,0,0,10.184-.344c1.531-.207,6.877.737,7.368-.491,1.067-2.671-2.061-6.421-4.42-9.333A461.47,461.47,0,0,1,45.51,8.193C44.346,6.452,41.786.721,39.139.1c-3.725-.876-5.063,4.236-6.445,6.489Q25.382,18.505,17.769,30.3C12.018,39.216-1.007,53.5.062,56.181" transform="translate(135.203 60) rotate(90)" fill="none" stroke="#000" stroke-width="4"/>
  </g>
</svg>
